<?xml version="1.0" standalone="no"?>
<!DOCTYPE svg PUBLIC "-//W3C//DTD SVG 20010904//EN"
 "http://www.w3.org/TR/2001/REC-SVG-20010904/DTD/svg10.dtd">
<svg version="1.0" xmlns="http://www.w3.org/2000/svg"
 width="302.000000pt" height="302.000000pt" viewBox="0 0 302.000000 302.000000"
 preserveAspectRatio="xMidYMid meet">
<metadata>
Created by potrace 1.11, written by Peter Selinger 2001-2013
</metadata>
<g transform="translate(0.000000,302.000000) scale(0.100000,-0.100000)"
fill="#000000" stroke="none">
<path d="M1580 2675 c-181 -31 -303 -98 -442 -241 -261 -269 -436 -751 -455
-1254 -11 -306 45 -520 171 -646 60 -59 118 -92 226 -126 66 -20 95 -23 235
-23 124 0 176 4 230 19 279 74 497 240 609 465 30 59 29 76 -7 85 -20 5 -37
-7 -109 -77 -150 -146 -323 -214 -527 -205 -209 9 -296 99 -330 342 -13 92
-13 133 -3 268 7 87 16 180 21 206 5 26 15 76 21 112 62 333 213 680 360 831
74 75 143 109 225 109 75 0 122 -23 153 -76 20 -34 22 -49 19 -124 -4 -99 -26
-156 -82 -219 -20 -22 -35 -47 -32 -55 10 -26 90 -56 150 -56 124 0 177 52
202 199 21 123 -8 248 -75 325 -69 78 -154 120 -290 142 -101 16 -168 16 -270
-1z"/>
</g>
</svg>
